<svg xmlns="http://www.w3.org/2000/svg" viewBox="0 0 80 80">
  <rect width="80" height="80" fill="none"/>
  <g fill="none" stroke="#a03729" stroke-linecap="round" stroke-linejoin="round" stroke-width="3.5">
    <path d="M20 29.5c2.5 0 4 2.5 7 2.5s5.5-4.5 8.5-4.5S41.5 32 44.5 32s6-4.5 9-4.5c2.5 0 4 2 6.5 2"/>
    <path d="M20 42.5c2.5 0 4 2.5 7 2.5s5.5-4.5 8.5-4.5S41.5 45 44.5 45s6-4.5 9-4.5c2.5 0 4 2 6.5 2"/>
    <path d="M20 55.5c2.5 0 4 2.5 7 2.5s5.5-4.5 8.5-4.5S41.5 58 44.5 58s6-4.5 9-4.5c2.5 0 4 2 6.5 2"/>
  </g>
</svg>
